# xmcd
#
# Track frame offsets:
#   150
#   33507
#   47990
#   65263
#   81315
#   100666
#   117503
#   133751
#   148633
#   163656
#   177021
#
# Disc length: 2538 seconds
#
# Revision: 0
# Processed by: cddbd v1.5.1PL2 Copyright (c) Steve Scherf et al.
# Submitted via: uFREEDB ActiveX Control 1.5
#
DISCID=9809e80b
DTITLE=Mulheres Perdidas - Em plena lua de mel
DYEAR=2005
DGENRE=Pop
TTITLE0=Resumo
TTITLE1=Se quiser e assim
TTITLE2=Nos bares da cidade
TTITLE3=Volte amor
TTITLE4=Eu nao sou de pedra
TTITLE5=Em plena lua de mel
TTITLE6=Nao me diga nao
TTITLE7=Telefona
TTITLE8=Explica-me
TTITLE9=A perigo
TTITLE10=De que vale a riqueza
EXTD=
EXTT0=
EXTT1=
EXTT2=
EXTT3=
EXTT4=
EXTT5=
EXTT6=
EXTT7=
EXTT8=
EXTT9=
EXTT10=
PLAYORDER=
